<?xml version="1.0" standalone="no"?>
<!DOCTYPE svg PUBLIC "-//W3C//DTD SVG 20010904//EN"
 "http://www.w3.org/TR/2001/REC-SVG-20010904/DTD/svg10.dtd">
<svg version="1.0" xmlns="http://www.w3.org/2000/svg"
 width="250.000000pt" height="189.000000pt" viewBox="0 0 250.000000 189.000000"
 preserveAspectRatio="xMidYMid meet">
<metadata>
Created by potrace 1.10, written by Peter Selinger 2001-2011
</metadata>
<g transform="translate(0.000000,189.000000) scale(0.100000,-0.100000)"
fill="#000000" stroke="none">
<path d="M1087 1683 c-1 -1 0 -105 3 -232 3 -127 4 -231 4 -231 -1 0 -90 54
-199 120 -109 66 -200 118 -204 115 -3 -3 -35 -61 -71 -127 l-66 -122 46 -24
c25 -13 111 -60 192 -104 81 -44 152 -77 158 -73 15 9 12 25 -5 25 -8 0 -15 8
-15 17 0 13 -3 14 -11 6 -9 -9 -20 -6 -44 13 -17 13 -35 24 -38 24 -20 0 -226
124 -230 139 -5 19 14 51 31 51 5 0 8 8 5 19 -3 12 5 26 22 39 16 13 22 23 15
27 -8 5 -6 13 6 26 21 23 56 26 48 4 -4 -10 0 -15 11 -15 10 0 14 5 9 13 -4 6
2 4 13 -5 11 -10 24 -18 30 -18 6 0 13 -4 15 -9 4 -9 136 -91 148 -91 5 0 10
-3 12 -7 5 -12 93 -53 112 -53 29 0 36 48 36 242 -1 105 0 191 2 193 9 9 179
8 188 -1 7 -7 10 -67 8 -168 -2 -86 0 -156 5 -156 4 0 7 -7 7 -16 0 -9 -5 -12
-12 -8 -8 5 -9 0 -5 -16 3 -13 1 -31 -6 -39 -11 -14 -10 -14 6 -2 14 11 17 11
17 0 0 -11 2 -11 10 1 5 8 10 108 10 230 l0 215 -131 0 c-72 0 -131 -1 -132
-2z"/>
<path d="M1715 1441 c-17 -10 -109 -65 -205 -122 -106 -62 -168 -105 -158
-107 23 -5 280 135 300 163 4 5 8 6 8 2 0 -5 15 1 34 12 39 25 37 26 90 -73
56 -104 68 -89 -179 -223 -55 -30 -111 -66 -124 -80 l-23 -27 22 -18 c12 -10
17 -18 11 -18 -6 0 -11 -5 -11 -11 0 -7 10 -9 25 -7 13 3 26 2 27 -2 3 -7 207
-130 261 -157 33 -17 36 -54 8 -82 -14 -14 -16 -21 -8 -25 17 -6 -33 -9 -143
-6 -94 2 -96 2 -182 52 -98 56 -128 59 -141 13 -18 -60 -18 -60 -110 -63 l-86
-3 -6 28 c-14 65 -24 76 -58 70 -18 -3 -68 -26 -112 -51 l-80 -46 -102 0
c-118 0 -129 3 -148 41 -24 45 -18 57 43 89 31 17 80 43 107 59 28 17 75 42
107 58 31 15 63 40 73 56 9 15 14 27 12 27 -5 0 -80 -41 -278 -154 l-137 -77
34 -56 c19 -31 34 -60 34 -65 0 -4 61 -8 135 -8 l134 0 98 59 98 59 3 -59 3
-59 131 0 130 0 -4 60 c-2 33 -3 60 -2 60 1 0 46 -27 100 -60 l98 -60 131 0
131 0 36 64 36 65 -199 113 c-109 62 -199 115 -199 118 0 3 60 37 133 75 72
39 161 86 198 105 l66 35 -67 127 -66 127 -29 -18z"/>
<path d="M730 440 c0 -56 3 -70 15 -70 10 0 15 10 15 30 0 27 3 30 29 30 25 0
30 -4 33 -27 2 -17 9 -28 18 -28 12 0 15 14 15 65 0 51 -3 65 -15 65 -9 0 -16
-11 -18 -27 -3 -24 -8 -28 -33 -28 -26 0 -29 3 -29 30 0 20 -5 30 -15 30 -12
0 -15 -14 -15 -70z"/>
<path d="M958 503 l-58 -4 0 -59 0 -60 60 0 c48 0 60 3 60 16 0 12 -9 15 -40
12 -22 -2 -39 1 -39 7 0 6 13 10 29 10 20 0 30 5 30 15 0 10 -10 15 -27 15
-16 0 -29 5 -30 10 -1 6 15 9 37 7 35 -3 40 -1 40 17 0 12 -1 20 -2 19 -2 -1
-29 -3 -60 -5z"/>
<path d="M1064 496 c-3 -7 -4 -38 -2 -67 2 -40 7 -54 18 -54 8 0 15 9 15 20 0
25 28 22 56 -6 25 -25 47 -15 24 11 -11 12 -13 20 -6 25 19 11 13 63 -8 75
-29 15 -91 13 -97 -4z m86 -36 c0 -16 -7 -20 -30 -20 -23 0 -30 4 -30 20 0 16
7 20 30 20 23 0 30 -4 30 -20z"/>
<path d="M1483 503 l-53 -4 0 -59 0 -58 55 -4 c48 -3 55 -1 55 16 0 16 -6 18
-40 13 -30 -4 -40 -2 -40 9 0 9 12 14 36 14 24 0 34 4 31 13 -2 7 -16 11 -35
9 -25 -3 -32 0 -32 13 0 14 7 16 40 10 36 -6 40 -5 40 14 0 12 -1 20 -2 19 -2
-1 -27 -3 -55 -5z"/>
<path d="M1606 497 c-11 -8 -17 -23 -14 -38 2 -19 10 -25 37 -29 19 -3 36 -11
39 -19 4 -11 -5 -12 -42 -7 -37 6 -46 4 -46 -8 0 -20 64 -32 96 -17 20 9 25
17 22 39 -3 23 -8 27 -40 30 -27 2 -38 8 -38 19 0 13 8 14 40 9 31 -5 40 -3
40 8 0 27 -63 36 -94 13z"/>
<path d="M1230 440 c0 -33 4 -60 10 -60 6 0 13 -1 17 -2 5 -2 7 15 5 37 -2 37
-2 39 13 21 8 -11 15 -23 15 -28 0 -19 28 -6 41 20 l14 27 3 -43 c5 -66 26
-47 30 26 3 57 1 62 -17 62 -13 0 -27 -12 -36 -30 -9 -16 -18 -30 -20 -30 -2
0 -11 14 -20 30 -9 18 -23 30 -35 30 -18 0 -20 -7 -20 -60z"/>
<path d="M980 270 c0 -6 85 -10 235 -10 150 0 235 4 235 10 0 6 -85 10 -235
10 -150 0 -235 -4 -235 -10z"/>
</g>
</svg>
